<svg xmlns="http://www.w3.org/2000/svg" width="122" height="18.03" viewBox="0 0 122 18.03"><title>logo-bmc-series</title><path d="M84.26,11.7h.15a5.47,5.47,0,0,0,1.21,1.15,2.62,2.62,0,0,0,1.5.44,2,2,0,0,0,1.43-.49,1.82,1.82,0,0,0-.09-2.66,5.62,5.62,0,0,0-1.57-.93A5.37,5.37,0,0,1,85,8a2.5,2.5,0,0,1-.7-1.74,2.23,2.23,0,0,1,.85-1.82,3.2,3.2,0,0,1,2.08-.69,3.56,3.56,0,0,1,2.39.82l.06,1.41h-.2a3,3,0,0,0-2.32-1.18,1.87,1.87,0,0,0-1.23.4,1.26,1.26,0,0,0-.48,1c0,.87.77,1.49,2.2,2.11,1.75.74,2.71,1.7,2.71,3a2.89,2.89,0,0,1-.94,2.21,3.27,3.27,0,0,1-2.35.88,4.06,4.06,0,0,1-2.94-1.18l.08-1.53Zm8.31-3.88a3.62,3.62,0,0,1,2.55-1.09,3.43,3.43,0,0,1,2.53,1,3.48,3.48,0,0,1,1,2.58v.59h-6a2.71,2.71,0,0,0,.47,1.35,2.53,2.53,0,0,0,2.13,1.12,3.5,3.5,0,0,0,1.38-.26A5,5,0,0,0,98,12.17h.11l0,1.29a4.4,4.4,0,0,1-2.78,1,3.84,3.84,0,0,1-1.95-.51A3.7,3.7,0,0,1,92,12.52a3.91,3.91,0,0,1-.49-1.95,3.9,3.9,0,0,1,1.07-2.75Zm5,2.08a2.44,2.44,0,0,0-.78-1.6,2.33,2.33,0,0,0-1.67-.62,2.26,2.26,0,0,0-1.52.58,2.62,2.62,0,0,0-.86,1.62h4.83Zm2.56,4.3V6.93h1.18V8a2.51,2.51,0,0,1,.92-.94,2.31,2.31,0,0,1,1.16-.32,1.86,1.86,0,0,1,1.11.34l.08,1.19h-.14a1.71,1.71,0,0,0-1.24-.48,1.87,1.87,0,0,0-1.28.51,2.35,2.35,0,0,0-.62,1.75V14.2h-1.18ZM106,4.14a.82.82,0,1,1,0,1.16.83.83,0,0,1,0-1.16Zm0,10.06V6.93h1.18v7.27H106Zm3.75-6.38a3.62,3.62,0,0,1,2.55-1.09,3.43,3.43,0,0,1,2.53,1,3.48,3.48,0,0,1,1,2.58v.59h-6a2.7,2.7,0,0,0,.47,1.35,2.53,2.53,0,0,0,2.13,1.12,3.51,3.51,0,0,0,1.39-.26,5,5,0,0,0,1.34-.92h.11l0,1.29a4.36,4.36,0,0,1-2.78,1,3.83,3.83,0,0,1-1.94-.51,3.67,3.67,0,0,1-1.36-1.39,4.08,4.08,0,0,1,.58-4.7Zm5,2.08a2.46,2.46,0,0,0-.77-1.6,2.31,2.31,0,0,0-1.66-.62,2.26,2.26,0,0,0-1.52.58,2.62,2.62,0,0,0-.86,1.62h4.83Zm2.42,2.65h.09a3.38,3.38,0,0,0,2.08.79c.92,0,1.48-.43,1.48-1.08a1,1,0,0,0-.4-.81,5,5,0,0,0-1.29-.59,4.14,4.14,0,0,1-1.4-.74,1.84,1.84,0,0,1-.62-1.43,1.73,1.73,0,0,1,.69-1.37,2.51,2.51,0,0,1,1.68-.58,3.87,3.87,0,0,1,2,.56l.05,1.13h-.1a3.16,3.16,0,0,0-2-.7c-.75,0-1.31.35-1.31,1a.89.89,0,0,0,.42.77,5.83,5.83,0,0,0,1.31.61,4.46,4.46,0,0,1,1.55.81,1.69,1.69,0,0,1,.57,1.35,2,2,0,0,1-.78,1.59,2.92,2.92,0,0,1-1.88.63,4.35,4.35,0,0,1-2.43-.74l.28-1.12Z" fill="#002c51"/><g><path d="M34.72,8.54a4.21,4.21,0,0,0,2.63-3.9,4.07,4.07,0,0,0-1.58-3.36A7.06,7.06,0,0,0,31.28,0H25V18h7.26a5.93,5.93,0,0,0,5.13-2.3,4.8,4.8,0,0,0,.83-2.8,4.1,4.1,0,0,0-1-2.8A5,5,0,0,0,34.72,8.54Zm-6.07,1.84H31.9c1.74,0,2.6.72,2.6,2.21s-.84,2.21-2.6,2.21H28.65Zm4.64-3.72a2.81,2.81,0,0,1-2,.55H28.65v-4h2.64a2.81,2.81,0,0,1,2,.52,2,2,0,0,1,.52,1.46A2,2,0,0,1,33.29,6.66Z" fill="#1b3051"/><path d="M56,0H54.89L50.23,10.62,45.65,0H44.44L39.65,18h3.59l2.6-9.36,4,8.65h.81l4-8.65L57.18,18h3.59Z" fill="#1b3051"/><path d="M75.16,13.5h0a7.19,7.19,0,0,1-4,1.3,5.66,5.66,0,0,1-4.25-1.61A5.84,5.84,0,0,1,65.29,9a5.78,5.78,0,0,1,1.54-4.15,5.66,5.66,0,0,1,4.25-1.61,7.19,7.19,0,0,1,4,1.27h0l.81-3.12h0A9.76,9.76,0,0,0,73.61.33,10.22,10.22,0,0,0,70.91,0a9.78,9.78,0,0,0-4.66,1.14A8.48,8.48,0,0,0,63,4.37,9,9,0,0,0,61.76,9a9.13,9.13,0,0,0,.7,3.59,8.55,8.55,0,0,0,1.93,2.86A9.51,9.51,0,0,0,70.93,18a10.06,10.06,0,0,0,2.7-.31,9.79,9.79,0,0,0,2.37-1h0l-.83-3.18Z" fill="#1b3051"/></g><polygon points="0 0.02 17.97 0.02 17.97 17.99 0 0.02" fill="#00cba8"/><polygon points="17.97 17.99 0 17.99 0 0.02 17.97 17.99" fill="#1b3051"/></svg>