<?xml version="1.0" standalone="no"?>
<!DOCTYPE svg PUBLIC "-//W3C//DTD SVG 20010904//EN"
 "http://www.w3.org/TR/2001/REC-SVG-20010904/DTD/svg10.dtd">
<svg version="1.0" xmlns="http://www.w3.org/2000/svg"
 width="876.000000pt" height="876.000000pt" viewBox="0 0 876.000000 876.000000"
 preserveAspectRatio="xMidYMid meet">
<metadata>
Created by potrace 1.11, written by Peter Selinger 2001-2013
</metadata>
<g transform="translate(0.000000,876.000000) scale(0.100000,-0.100000)"
fill="#000000" stroke="none">
<path d="M4397 7704 c-1 -1 -45 -5 -97 -9 -128 -9 -170 -13 -200 -19 -14 -2
-43 -7 -65 -10 -66 -9 -140 -23 -140 -26 0 -1 -11 -3 -25 -6 -14 -2 -41 -7
-60 -11 -19 -4 -39 -8 -45 -8 -5 -1 -17 -5 -25 -8 -17 -6 -155 -46 -184 -52
-52 -12 -295 -104 -358 -136 -21 -11 -38 -17 -38 -14 0 2 -17 -5 -37 -17 -80
-45 -148 -78 -160 -78 -7 0 -13 -4 -13 -8 0 -4 -20 -18 -45 -30 -25 -12 -78
-44 -119 -71 -41 -27 -78 -50 -82 -52 -25 -11 -124 -83 -124 -90 0 -5 -7 -9
-15 -9 -7 0 -18 -6 -22 -12 -4 -7 -24 -24 -44 -38 -89 -61 -277 -234 -399
-367 -88 -96 -113 -125 -158 -183 -23 -30 -48 -62 -55 -70 -8 -8 -33 -44 -58
-80 -24 -36 -49 -71 -56 -78 -6 -6 -15 -21 -18 -32 -3 -11 -10 -20 -15 -20 -4
0 -11 -8 -14 -17 -3 -10 -12 -27 -19 -38 -86 -138 -203 -373 -262 -525 -28
-73 -86 -243 -91 -269 -3 -13 -9 -32 -15 -43 -5 -10 -7 -18 -5 -18 3 0 1 -12
-5 -26 -10 -28 -48 -191 -54 -234 -2 -14 -7 -41 -10 -60 -8 -41 -10 -56 -20
-135 -3 -33 -9 -71 -11 -85 -22 -133 -21 -556 1 -700 2 -14 7 -50 10 -80 12
-105 55 -316 90 -440 19 -69 37 -132 39 -140 6 -21 75 -211 86 -235 11 -24 33
-78 34 -85 5 -25 135 -272 197 -375 108 -177 103 -169 110 -175 3 -3 20 -27
39 -55 18 -27 39 -57 47 -65 7 -8 34 -42 60 -75 70 -88 74 -93 116 -139 129
-138 232 -239 331 -321 26 -22 53 -45 59 -50 86 -77 474 -335 505 -335 5 0 14
-6 20 -12 7 -7 16 -13 20 -14 4 0 61 -27 127 -59 66 -32 136 -63 155 -71 19
-7 60 -22 90 -34 159 -60 352 -116 518 -150 106 -21 120 -23 212 -35 30 -4 66
-8 80 -11 139 -23 599 -22 743 1 12 2 45 6 72 10 47 5 181 28 233 40 12 3 32
7 45 10 74 16 127 29 164 41 23 7 52 15 65 18 70 13 420 150 506 198 18 10 39
18 47 18 8 0 15 4 15 9 0 5 12 14 28 20 44 17 146 76 255 149 56 37 106 69
111 71 5 2 16 9 25 16 9 8 42 34 73 59 32 25 60 46 64 46 3 0 11 6 18 13 7 7
42 37 77 67 74 64 284 272 347 345 109 125 268 349 368 519 41 70 203 403 209
430 1 6 7 25 14 41 6 17 19 50 28 75 8 25 18 52 21 60 3 8 6 20 8 25 2 6 17
57 34 114 16 57 32 114 34 125 3 12 14 62 25 111 19 88 23 110 36 210 4 28 9
62 11 77 25 165 25 613 -1 808 -8 55 -13 89 -30 180 -9 47 -17 92 -19 100 -1
8 -6 29 -10 45 -4 17 -12 50 -18 75 -5 25 -14 56 -19 70 -5 14 -10 34 -12 45
-2 11 -6 27 -9 35 -3 8 -25 71 -48 140 -24 69 -46 130 -50 135 -3 6 -15 33
-25 60 -25 67 -148 314 -198 395 -171 280 -304 448 -527 670 -144 142 -171
167 -235 214 -22 17 -42 33 -45 37 -3 4 -37 30 -75 58 -39 27 -74 54 -80 58
-12 10 -186 121 -235 150 -70 42 -292 153 -306 153 -8 0 -14 5 -14 10 0 6 -5
10 -12 10 -6 0 -61 20 -122 44 -61 24 -165 61 -231 80 -66 20 -135 41 -153 47
-19 6 -44 12 -55 14 -12 2 -33 6 -47 9 -87 20 -92 21 -175 35 -33 6 -80 13
-105 16 -25 3 -56 7 -70 10 -67 12 -522 28 -533 19z"/>
</g>
</svg>
